<svg xmlns="http://www.w3.org/2000/svg" width="1200" height="630" viewBox="0 0 1200 630"><defs><linearGradient id="g" x1="0" y1="0" x2="1" y2="1"><stop offset="0" stop-color="#1b2530"/><stop offset="1" stop-color="#0c1117"/></linearGradient></defs><rect width="1200" height="630" fill="url(#g)"/><rect x="148" y="117.39999999999999" width="220" height="122.20000000000002" fill="none" stroke="#b0966e" stroke-opacity="0.5" stroke-width="2"/><rect x="376" y="117.39999999999999" width="220" height="122.20000000000002" fill="none" stroke="#b0966e" stroke-opacity="0.5" stroke-width="2"/><rect x="604" y="117.39999999999999" width="220" height="122.20000000000002" fill="none" stroke="#b0966e" stroke-opacity="0.5" stroke-width="2"/><rect x="832" y="117.39999999999999" width="220" height="122.20000000000002" fill="none" stroke="#b0966e" stroke-opacity="0.5" stroke-width="2"/><rect x="148" y="247.60000000000002" width="220" height="122.20000000000002" fill="none" stroke="#b0966e" stroke-opacity="0.5" stroke-width="2"/><rect x="376" y="247.60000000000002" width="220" height="122.20000000000002" fill="none" stroke="#b0966e" stroke-opacity="0.5" stroke-width="2"/><rect x="604" y="247.60000000000002" width="220" height="122.20000000000002" fill="none" stroke="#b0966e" stroke-opacity="0.5" stroke-width="2"/><rect x="832" y="247.60000000000002" width="220" height="122.20000000000002" fill="none" stroke="#b0966e" stroke-opacity="0.5" stroke-width="2"/><rect x="148" y="377.8" width="220" height="122.20000000000002" fill="none" stroke="#b0966e" stroke-opacity="0.5" stroke-width="2"/><rect x="376" y="377.8" width="220" height="122.20000000000002" fill="none" stroke="#b0966e" stroke-opacity="0.5" stroke-width="2"/><rect x="604" y="377.8" width="220" height="122.20000000000002" fill="none" stroke="#b0966e" stroke-opacity="0.5" stroke-width="2"/><rect x="832" y="377.8" width="220" height="122.20000000000002" fill="none" stroke="#b0966e" stroke-opacity="0.5" stroke-width="2"/><rect x="144" y="113.39999999999999" width="912" height="390.6" fill="none" stroke="#b0966e" stroke-width="3"/><text x="96" y="567" font-family="Inter,Arial,sans-serif" font-size="32" font-weight="800" fill="#fbf8f2" fill-opacity="0.9">Karfanjara Hilux</text><text x="96" y="601.65" font-family="Inter,Arial,sans-serif" font-size="16" fill="#fbf8f2" fill-opacity="0.6">KARFANJARA HILUX</text></svg>