<svg xmlns="http://www.w3.org/2000/svg" width="800" height="600" viewBox="0 0 800 600"><defs><linearGradient id="g" x1="0" y1="0" x2="1" y2="1"><stop offset="0" stop-color="#1b2530"/><stop offset="1" stop-color="#0c1117"/></linearGradient></defs><rect width="800" height="600" fill="url(#g)"/><rect x="100" y="112" width="144" height="116" fill="none" stroke="#b0966e" stroke-opacity="0.5" stroke-width="2"/><rect x="252" y="112" width="144" height="116" fill="none" stroke="#b0966e" stroke-opacity="0.5" stroke-width="2"/><rect x="404" y="112" width="144" height="116" fill="none" stroke="#b0966e" stroke-opacity="0.5" stroke-width="2"/><rect x="556" y="112" width="144" height="116" fill="none" stroke="#b0966e" stroke-opacity="0.5" stroke-width="2"/><rect x="100" y="236" width="144" height="116" fill="none" stroke="#b0966e" stroke-opacity="0.5" stroke-width="2"/><rect x="252" y="236" width="144" height="116" fill="none" stroke="#b0966e" stroke-opacity="0.5" stroke-width="2"/><rect x="404" y="236" width="144" height="116" fill="none" stroke="#b0966e" stroke-opacity="0.5" stroke-width="2"/><rect x="556" y="236" width="144" height="116" fill="none" stroke="#b0966e" stroke-opacity="0.5" stroke-width="2"/><rect x="100" y="360" width="144" height="116" fill="none" stroke="#b0966e" stroke-opacity="0.5" stroke-width="2"/><rect x="252" y="360" width="144" height="116" fill="none" stroke="#b0966e" stroke-opacity="0.5" stroke-width="2"/><rect x="404" y="360" width="144" height="116" fill="none" stroke="#b0966e" stroke-opacity="0.5" stroke-width="2"/><rect x="556" y="360" width="144" height="116" fill="none" stroke="#b0966e" stroke-opacity="0.5" stroke-width="2"/><rect x="96" y="108" width="608" height="372" fill="none" stroke="#b0966e" stroke-width="3"/><text x="64" y="540" font-family="Inter,Arial,sans-serif" font-size="30" font-weight="800" fill="#fbf8f2" fill-opacity="0.9">细节·密封</text><text x="64" y="573" font-family="Inter,Arial,sans-serif" font-size="16" fill="#fbf8f2" fill-opacity="0.6">KARFANJARA HILUX</text></svg>